<svg width="128" height="128" viewBox="0 0 128 128" fill="none" xmlns="http://www.w3.org/2000/svg">
<rect width="128" height="128" rx="20" fill="#1CBECB" fill-opacity="0.1"/>
<path d="M89.76 107.16H38.16C36.72 107.16 36 106.147 36 104.12C36 103.32 36.1867 102.653 36.56 102.12C36.9333 101.533 37.4667 101.24 38.16 101.24H38.8C36.3467 97.4533 35.12 93.7467 35.12 90.12C35.12 82.12 37.84 75.1867 43.28 69.32C48.6667 63.4 55.44 60.44 63.6 60.44C68.72 60.44 73.4667 61.5867 77.84 63.88C82.16 66.1733 85.7333 69.64 88.56 74.28C91.3333 78.92 92.72 84.3067 92.72 90.44C92.72 94.5467 91.7333 98.1467 89.76 101.24C90.4533 101.24 91.0133 101.533 91.44 102.12C91.8133 102.707 92 103.4 92 104.2C92 106.173 91.2533 107.16 89.76 107.16ZM82.08 101.24C85.2267 98.3067 86.8 94.5733 86.8 90.04C86.8 82.84 84.4533 77.1067 79.76 72.84C75.0667 68.5733 69.6533 66.44 63.52 66.44C57.5467 66.44 52.32 68.6267 47.84 73C43.3067 77.32 41.04 82.9733 41.04 89.96C41.04 93.7467 42.3467 97.5067 44.96 101.24H82.08ZM89.76 50.9881L38.16 50.9881C36.72 50.9881 36 49.9748 36 47.9481C36 47.1481 36.1867 46.4815 36.56 45.9481C36.9333 45.3615 37.4667 45.0681 38.16 45.0681H86.16V18.8281C86.16 18.1348 86.4533 17.6015 87.04 17.2281C87.6267 16.8015 88.32 16.5881 89.12 16.5881C91.04 16.5881 92 17.3348 92 18.8281V46.3481C92 49.4415 91.2533 50.9881 89.76 50.9881Z" fill="#1CBECB"/>
</svg>
